solid OpenSCAD_Model
  facet normal 0.703702 0.0980219 -0.703702
    outer loop
      vertex 49 8 41.6863
      vertex 48.9035 9.56072 41.8072
      vertex 49.0122 8 41.6985
    endloop
  endfacet
  facet normal 0.703702 0.0980219 -0.703702
    outer loop
      vertex 48.9035 9.56072 41.8072
      vertex 49 8 41.6863
      vertex 46.2967 9.56072 39.2004
    endloop
  endfacet
  facet normal 0.703702 0.0980219 -0.703702
    outer loop
      vertex 19 8 11.6863
      vertex 28 9.56072 20.9037
      vertex 28 8 20.6863
    endloop
  endfacet
  facet normal 0.7037 0.0980323 -0.703702
    outer loop
      vertex 28 9.56072 20.9037
      vertex 19 8 11.6863
      vertex 16.2967 9.56072 9.20043
    endloop
  endfacet
  facet normal 0.703702 0.0980219 -0.703702
    outer loop
      vertex 34 8 26.6863
      vertex 43 9.56072 35.9037
      vertex 43 8 35.6863
    endloop
  endfacet
  facet normal 0.703702 0.0980219 -0.703702
    outer loop
      vertex 43 9.56072 35.9037
      vertex 34 8 26.6863
      vertex 31.2967 9.56072 24.2004
    endloop
  endfacet
  facet normal -0.703701 0.0980174 0.703702
    outer loop
      vertex 2.34315 8 17.6569
      vertex 37.8072 9.56072 52.9035
      vertex 2.45184 9.56072 17.5482
    endloop
  endfacet
  facet normal -0.703701 0.0980219 0.703702
    outer loop
      vertex 37.8072 9.56072 52.9035
      vertex 2.34315 8 17.6569
      vertex 37.6985 8 53.0122
    endloop
  endfacet
  facet normal 0.0693005 0.995186 -0.0693005
    outer loop
      vertex 44.4589 15.8463 46.2517
      vertex 8 16 12
      vertex 43.3553 16 47.3553
    endloop
  endfacet
  facet normal 0.0693005 0.995186 -0.0693005
    outer loop
      vertex 8 16 12
      vertex 44.4589 15.8463 46.2517
      vertex 9.1036 15.8463 10.8964
    endloop
  endfacet
  facet normal -0.546601 -0.634393 0.546601
    outer loop
      vertex 3.2965 3.55544 16.7035
      vertex 39.3553 2.34315 51.3553
      vertex 38.6518 3.55544 52.0588
    endloop
  endfacet
  facet normal -0.546601 -0.634393 0.546601
    outer loop
      vertex 39.3553 2.34315 51.3553
      vertex 3.2965 3.55544 16.7035
      vertex 4 2.34315 16
    endloop
  endfacet
  facet normal 0.546603 0.63439 -0.546603
    outer loop
      vertex 48.0588 12.4446 42.6518
      vertex 12 13.6569 8
      vertex 47.3553 13.6569 43.3553
    endloop
  endfacet
  facet normal 0.546603 0.63439 -0.546603
    outer loop
      vertex 12 13.6569 8
      vertex 48.0588 12.4446 42.6518
      vertex 12.7035 12.4446 7.2965
    endloop
  endfacet
  facet normal 0.676662 0.290272 -0.676662
    outer loop
      vertex 46.2967 9.56072 39.2004
      vertex 48.5816 11.0615 42.1291
      vertex 48.9035 9.56072 41.8072
    endloop
  endfacet
  facet normal 0.676662 0.290272 -0.676662
    outer loop
      vertex 48.5816 11.0615 42.1291
      vertex 46.2967 9.56072 39.2004
      vertex 43.6974 11.0615 37.2449
    endloop
  endfacet
  facet normal 0.676661 0.290273 -0.676662
    outer loop
      vertex 16.2967 9.56072 9.20043
      vertex 28 11.0615 21.5475
      vertex 28 9.56072 20.9037
    endloop
  endfacet
  facet normal 0.676666 0.290253 -0.676665
    outer loop
      vertex 28 11.0615 21.5475
      vertex 16.2967 9.56072 9.20043
      vertex 13.6974 11.0615 7.24488
    endloop
  endfacet
  facet normal 0.676662 0.290272 -0.676662
    outer loop
      vertex 31.2967 9.56072 24.2004
      vertex 43 11.0615 36.5475
      vertex 43 9.56072 35.9037
    endloop
  endfacet
  facet normal 0.676662 0.290272 -0.676662
    outer loop
      vertex 43 11.0615 36.5475
      vertex 31.2967 9.56072 24.2004
      vertex 28.6974 11.0615 22.2449
    endloop
  endfacet
  facet normal -0.448574 0.773022 0.448574
    outer loop
      vertex 40.2126 14.6518 50.4981
      vertex 4 13.6569 16
      vertex 39.3553 13.6569 51.3553
    endloop
  endfacet
  facet normal -0.448586 0.773008 0.448587
    outer loop
      vertex 4 13.6569 16
      vertex 40.2126 14.6518 50.4981
      vertex 4.85722 14.6518 15.1428
    endloop
  endfacet
  facet normal -0.205291 0.956928 0.205291
    outer loop
      vertex 42.2517 15.8463 48.4589
      vertex 5.83522 15.391 14.1648
      vertex 41.1906 15.391 49.5201
    endloop
  endfacet
  facet normal -0.205284 0.956931 0.205284
    outer loop
      vertex 5.83522 15.391 14.1648
      vertex 42.2517 15.8463 48.4589
      vertex 6.8964 15.8463 13.1036
    endloop
  endfacet
  facet normal 0.448577 -0.773019 -0.448576
    outer loop
      vertex 11.1428 1.34824 8.85722
      vertex 47.3553 2.34315 43.3553
      vertex 46.4981 1.34824 44.2126
    endloop
  endfacet
  facet normal 0.448589 -0.773004 -0.448589
    outer loop
      vertex 47.3553 2.34315 43.3553
      vertex 11.1428 1.34824 8.85722
      vertex 12 2.34315 8
    endloop
  endfacet
  facet normal -0.707107 0 -0.707107
    outer loop
      vertex 8 12.4 12
      vertex 8 16 12
      vertex 9.1036 15.8463 10.8964
    endloop
  endfacet
  facet normal -0.707101 -3.75206e-06 -0.707113
    outer loop
      vertex 8 12.4 12
      vertex 9.1036 15.8463 10.8964
      vertex 10.1648 15.391 9.83522
    endloop
  endfacet
  facet normal -0.707107 -0 -0.707107
    outer loop
      vertex 8 16 12
      vertex 8 12.4 12
      vertex 6.8964 15.8463 13.1036
    endloop
  endfacet
  facet normal -0.707107 -1.7407e-06 -0.707106
    outer loop
      vertex 9.19063 12.0651 10.8094
      vertex 10.1648 15.391 9.83522
      vertex 11.1428 14.6518 8.85722
    endloop
  endfacet
  facet normal -0.707113 -3.75206e-06 -0.707101
    outer loop
      vertex 6.8964 15.8463 13.1036
      vertex 8 12.4 12
      vertex 5.83522 15.391 14.1648
    endloop
  endfacet
  facet normal -0.707112 5.18e-06 -0.707102
    outer loop
      vertex 9.19063 12.0651 10.8094
      vertex 11.1428 14.6518 8.85722
      vertex 12 13.6569 8
    endloop
  endfacet
  facet normal -0.7071 1.46426e-05 -0.707114
    outer loop
      vertex 6.80937 12.0651 13.1906
      vertex 5.83522 15.391 14.1648
      vertex 8 12.4 12
    endloop
  endfacet
  facet normal -0.707107 0 -0.707107
    outer loop
      vertex 10.2 11.1113 9.8
      vertex 12 13.6569 8
      vertex 12.7035 12.4446 7.2965
    endloop
  endfacet
  facet normal -0.70711 8.70348e-06 -0.707103
    outer loop
      vertex 5.83522 15.391 14.1648
      vertex 6.80937 12.0651 13.1906
      vertex 4.85722 14.6518 15.1428
    endloop
  endfacet
  facet normal -0.707107 1.39233e-05 -0.707107
    outer loop
      vertex 4.85722 14.6518 15.1428
      vertex 6.80937 12.0651 13.1906
      vertex 4 13.6569 16
    endloop
  endfacet
  facet normal -0.707099 -6.7857e-06 -0.707115
    outer loop
      vertex 10.1648 15.391 9.83522
      vertex 9.19063 12.0651 10.8094
      vertex 8 12.4 12
    endloop
  endfacet
  facet normal -0.707107 0 -0.707107
    outer loop
      vertex 10.2 11.1113 9.8
      vertex 12.7035 12.4446 7.2965
      vertex 13 11.4641 7
    endloop
  endfacet
  facet normal -0.707333 -0.000136746 -0.706881
    outer loop
      vertex 13 11.4641 7
      vertex 12.7035 12.4446 7.2965
      vertex 13.0947 11.4094 6.90525
    endloop
  endfacet
  facet normal -0.707113 -8.90826e-06 -0.7071
    outer loop
      vertex 5.8 11.1113 14.2
      vertex 4 13.6569 16
      vertex 6.80937 12.0651 13.1906
    endloop
  endfacet
  facet normal -0.707107 6.71829e-16 -0.707107
    outer loop
      vertex 4 13.6569 16
      vertex 5.8 11.1113 14.2
      vertex 3.2965 12.4446 16.7035
    endloop
  endfacet
  facet normal -0.707112 -2.1279e-05 -0.707101
    outer loop
      vertex 5.8 11.1113 14.2
      vertex 2.77375 11.0615 17.2263
      vertex 3.2965 12.4446 16.7035
    endloop
  endfacet
  facet normal -0.707113 2.5532e-05 -0.707101
    outer loop
      vertex 5.12556 9.68381 14.8744
      vertex 2.77375 11.0615 17.2263
      vertex 5.8 11.1113 14.2
    endloop
  endfacet
  facet normal -0.707118 9.34183e-06 -0.707096
    outer loop
      vertex 5.12556 9.68381 14.8744
      vertex 2.45184 9.56072 17.5482
      vertex 2.77375 11.0615 17.2263
    endloop
  endfacet
  facet normal -0.707117 -2.65921e-05 -0.707097
    outer loop
      vertex 4.88873 8 15.1113
      vertex 2.45184 9.56072 17.5482
      vertex 5.12556 9.68381 14.8744
    endloop
  endfacet
  facet normal -0.70711 -4.14373e-06 -0.707104
    outer loop
      vertex 4.88873 8 15.1113
      vertex 2.34315 8 17.6569
      vertex 2.45184 9.56072 17.5482
    endloop
  endfacet
  facet normal -0.70711 4.14373e-06 -0.707104
    outer loop
      vertex 4.88873 8 15.1113
      vertex 2.45184 6.43928 17.5482
      vertex 2.34315 8 17.6569
    endloop
  endfacet
  facet normal -0.707117 2.65921e-05 -0.707097
    outer loop
      vertex 5.12556 6.31619 14.8744
      vertex 2.45184 6.43928 17.5482
      vertex 4.88873 8 15.1113
    endloop
  endfacet
  facet normal -0.707118 -9.34202e-06 -0.707096
    outer loop
      vertex 5.12556 6.31619 14.8744
      vertex 2.77375 4.93853 17.2263
      vertex 2.45184 6.43928 17.5482
    endloop
  endfacet
  facet normal -0.707113 -2.55326e-05 -0.707101
    outer loop
      vertex 5.8 4.88873 14.2
      vertex 2.77375 4.93853 17.2263
      vertex 5.12556 6.31619 14.8744
    endloop
  endfacet
  facet normal -0.707113 8.90831e-06 -0.7071
    outer loop
      vertex 4 2.34315 16
      vertex 5.8 4.88873 14.2
      vertex 6.80937 3.93493 13.1906
    endloop
  endfacet
  facet normal -0.7071 -1.46422e-05 -0.707114
    outer loop
      vertex 5.83522 0.608964 14.1648
      vertex 6.80937 3.93493 13.1906
      vertex 8 3.6 12
    endloop
  endfacet
  facet normal -0.707112 2.12791e-05 -0.707101
    outer loop
      vertex 5.8 4.88873 14.2
      vertex 3.2965 3.55544 16.7035
      vertex 2.77375 4.93853 17.2263
    endloop
  endfacet
  facet normal -0.707112 -5.17998e-06 -0.707102
    outer loop
      vertex 11.1428 1.34824 8.85722
      vertex 9.19063 3.93493 10.8094
      vertex 12 2.34315 8
    endloop
  endfacet
  facet normal -0.707107 1.74063e-06 -0.707106
    outer loop
      vertex 10.1648 0.608964 9.83522
      vertex 9.19063 3.93493 10.8094
      vertex 11.1428 1.34824 8.85722
    endloop
  endfacet
  facet normal -0.707107 -6.32315e-16 -0.707107
    outer loop
      vertex 5.8 4.88873 14.2
      vertex 4 2.34315 16
      vertex 3.2965 3.55544 16.7035
    endloop
  endfacet
  facet normal -0.707099 6.78553e-06 -0.707115
    outer loop
      vertex 9.19063 3.93493 10.8094
      vertex 10.1648 0.608964 9.83522
      vertex 8 3.6 12
    endloop
  endfacet
  facet normal -0.707107 -1.39233e-05 -0.707107
    outer loop
      vertex 6.80937 3.93493 13.1906
      vertex 4.85722 1.34824 15.1428
      vertex 4 2.34315 16
    endloop
  endfacet
  facet normal -0.707101 3.75213e-06 -0.707113
    outer loop
      vertex 9.1036 0.153718 10.8964
      vertex 8 3.6 12
      vertex 10.1648 0.608964 9.83522
    endloop
  endfacet
  facet normal -0.70711 -8.70317e-06 -0.707103
    outer loop
      vertex 6.80937 3.93493 13.1906
      vertex 5.83522 0.608964 14.1648
      vertex 4.85722 1.34824 15.1428
    endloop
  endfacet
  facet normal -0.707107 0 -0.707107
    outer loop
      vertex 8 0 12
      vertex 8 3.6 12
      vertex 9.1036 0.153718 10.8964
    endloop
  endfacet
  facet normal -0.707113 3.75213e-06 -0.707101
    outer loop
      vertex 8 3.6 12
      vertex 6.8964 0.153718 13.1036
      vertex 5.83522 0.608964 14.1648
    endloop
  endfacet
  facet normal -0.707107 -0 -0.707107
    outer loop
      vertex 8 3.6 12
      vertex 8 0 12
      vertex 6.8964 0.153718 13.1036
    endloop
  endfacet
  facet normal -0.707113 8.90826e-06 -0.7071
    outer loop
      vertex 12 13.6569 8
      vertex 10.2 11.1113 9.8
      vertex 9.19063 12.0651 10.8094
    endloop
  endfacet
  facet normal -0.707108 1.87008e-05 -0.707106
    outer loop
      vertex 13 11.4641 7
      vertex 10.8744 9.68381 9.12556
      vertex 10.2 11.1113 9.8
    endloop
  endfacet
  facet normal -0.70709 -2.46231e-05 -0.707124
    outer loop
      vertex 13 11.4641 7
      vertex 11.1113 8 8.88873
      vertex 10.8744 9.68381 9.12556
    endloop
  endfacet
  facet normal -0.707112 0 -0.707101
    outer loop
      vertex 13 4.5359 7
      vertex 11.1113 8 8.88873
      vertex 13 11.4641 7
    endloop
  endfacet
  facet normal -0.70709 2.46231e-05 -0.707124
    outer loop
      vertex 11.1113 8 8.88873
      vertex 13 4.5359 7
      vertex 10.8744 6.31619 9.12556
    endloop
  endfacet
  facet normal -0.707108 -1.8701e-05 -0.707106
    outer loop
      vertex 13 4.5359 7
      vertex 10.2 4.88873 9.8
      vertex 10.8744 6.31619 9.12556
    endloop
  endfacet
  facet normal -0.707107 0 -0.707107
    outer loop
      vertex 12.7035 3.55544 7.2965
      vertex 10.2 4.88873 9.8
      vertex 13 4.5359 7
    endloop
  endfacet
  facet normal -0.707107 0 -0.707107
    outer loop
      vertex 12 2.34315 8
      vertex 10.2 4.88873 9.8
      vertex 12.7035 3.55544 7.2965
    endloop
  endfacet
  facet normal -0.707113 -8.90831e-06 -0.7071
    outer loop
      vertex 10.2 4.88873 9.8
      vertex 12 2.34315 8
      vertex 9.19063 3.93493 10.8094
    endloop
  endfacet
  facet normal -0.707333 0.000136753 -0.706881
    outer loop
      vertex 12.7035 3.55544 7.2965
      vertex 13 4.5359 7
      vertex 13.0947 4.5906 6.90525
    endloop
  endfacet
  facet normal 0.623581 0.47148 -0.623581
    outer loop
      vertex 28.6974 11.0615 22.2449
      vertex 43 11.4641 36.8519
      vertex 43 11.0615 36.5475
    endloop
  endfacet
  facet normal 0.623581 0.47148 -0.623581
    outer loop
      vertex 43 11.4641 36.8519
      vertex 28.6974 11.0615 22.2449
      vertex 28 11.4641 21.8519
    endloop
  endfacet
  facet normal 0.623626 0.471361 -0.623626
    outer loop
      vertex 28 11.4641 21.8519
      vertex 48.0588 12.4446 42.6518
      vertex 43 11.4641 36.8519
    endloop
  endfacet
  facet normal 0.623613 0.471396 -0.623613
    outer loop
      vertex 43.6974 11.0615 37.2449
      vertex 48.0588 12.4446 42.6518
      vertex 48.5816 11.0615 42.1291
    endloop
  endfacet
  facet normal 0.623579 0.471457 -0.623601
    outer loop
      vertex 48.0588 12.4446 42.6518
      vertex 43.6974 11.0615 37.2449
      vertex 43 11.4641 36.8519
    endloop
  endfacet
  facet normal 0.623626 0.471361 -0.623626
    outer loop
      vertex 48.0588 12.4446 42.6518
      vertex 28 11.4641 21.8519
      vertex 12.7035 12.4446 7.2965
    endloop
  endfacet
  facet normal 0.623587 0.471478 -0.623577
    outer loop
      vertex 28 11.0615 21.5475
      vertex 12.7035 12.4446 7.2965
      vertex 28 11.4641 21.8519
    endloop
  endfacet
  facet normal 0.623611 0.471403 -0.62361
    outer loop
      vertex 12.7035 12.4446 7.2965
      vertex 28 11.0615 21.5475
      vertex 13.6974 11.0615 7.24488
    endloop
  endfacet
  facet normal 0.623551 0.471363 -0.623699
    outer loop
      vertex 12.7035 12.4446 7.2965
      vertex 13.6974 11.0615 7.24488
      vertex 13.0947 11.4094 6.90525
    endloop
  endfacet
  facet normal 0.333299 0.881943 -0.333298
    outer loop
      vertex 46.4981 14.6518 44.2126
      vertex 10.1648 15.391 9.83522
      vertex 45.5201 15.391 45.1906
    endloop
  endfacet
  facet normal 0.333299 0.881943 -0.333298
    outer loop
      vertex 10.1648 15.391 9.83522
      vertex 46.4981 14.6518 44.2126
      vertex 11.1428 14.6518 8.85722
    endloop
  endfacet
  facet normal 0.205291 0.956928 -0.205291
    outer loop
      vertex 45.5201 15.391 45.1906
      vertex 9.1036 15.8463 10.8964
      vertex 44.4589 15.8463 46.2517
    endloop
  endfacet
  facet normal 0.205284 0.956931 -0.205284
    outer loop
      vertex 9.1036 15.8463 10.8964
      vertex 45.5201 15.391 45.1906
      vertex 10.1648 15.391 9.83522
    endloop
  endfacet
  facet normal 0.448574 0.773022 -0.448573
    outer loop
      vertex 47.3553 13.6569 43.3553
      vertex 11.1428 14.6518 8.85722
      vertex 46.4981 14.6518 44.2126
    endloop
  endfacet
  facet normal 0.448586 0.773008 -0.448586
    outer loop
      vertex 11.1428 14.6518 8.85722
      vertex 47.3553 13.6569 43.3553
      vertex 12 13.6569 8
    endloop
  endfacet
  facet normal -0.623606 0.471413 0.623606
    outer loop
      vertex 2.77375 11.0615 17.2263
      vertex 38.6518 12.4446 52.0588
      vertex 3.2965 12.4446 16.7035
    endloop
  endfacet
  facet normal -0.623612 0.471396 0.623613
    outer loop
      vertex 38.6518 12.4446 52.0588
      vertex 2.77375 11.0615 17.2263
      vertex 38.1291 11.0615 52.5816
    endloop
  endfacet
  facet normal -0.546603 0.63439 0.546603
    outer loop
      vertex 39.3553 13.6569 51.3553
      vertex 3.2965 12.4446 16.7035
      vertex 38.6518 12.4446 52.0588
    endloop
  endfacet
  facet normal -0.546603 0.63439 0.546603
    outer loop
      vertex 3.2965 12.4446 16.7035
      vertex 39.3553 13.6569 51.3553
      vertex 4 13.6569 16
    endloop
  endfacet
  facet normal -0.67666 0.290276 0.676661
    outer loop
      vertex 2.45184 9.56072 17.5482
      vertex 38.1291 11.0615 52.5816
      vertex 2.77375 11.0615 17.2263
    endloop
  endfacet
  facet normal -0.676661 0.290272 0.676662
    outer loop
      vertex 38.1291 11.0615 52.5816
      vertex 2.45184 9.56072 17.5482
      vertex 37.8072 9.56072 52.9035
    endloop
  endfacet
  facet normal 0.707107 -0 0.707107
    outer loop
      vertex 43.3553 12.4 47.3553
      vertex 43.3553 16 47.3553
      vertex 42.2517 15.8463 48.4589
    endloop
  endfacet
  facet normal 0.707136 1.87609e-05 0.707077
    outer loop
      vertex 43.3553 12.4 47.3553
      vertex 42.2517 15.8463 48.4589
      vertex 41.1906 15.391 49.5201
    endloop
  endfacet
  facet normal 0.707107 0 0.707107
    outer loop
      vertex 43.3553 16 47.3553
      vertex 43.3553 12.4 47.3553
      vertex 44.4589 15.8463 46.2517
    endloop
  endfacet
  facet normal 0.707107 0 0.707107
    outer loop
      vertex 42.1647 12.0651 48.546
      vertex 41.1906 15.391 49.5201
      vertex 40.2126 14.6518 50.4981
    endloop
  endfacet
  facet normal 0.707077 1.87609e-05 0.707136
    outer loop
      vertex 44.4589 15.8463 46.2517
      vertex 43.3553 12.4 47.3553
      vertex 45.5201 15.391 45.1906
    endloop
  endfacet
  facet normal 0.707085 -3.31846e-05 0.707129
    outer loop
      vertex 42.1647 12.0651 48.546
      vertex 40.2126 14.6518 50.4981
      vertex 39.3553 13.6569 51.3553
    endloop
  endfacet
  facet normal 0.707079 1.607e-05 0.707134
    outer loop
      vertex 44.546 12.0651 46.1647
      vertex 45.5201 15.391 45.1906
      vertex 43.3553 12.4 47.3553
    endloop
  endfacet
  facet normal 0.707107 0 0.707107
    outer loop
      vertex 41.1553 11.1113 49.5553
      vertex 39.3553 13.6569 51.3553
      vertex 38.6518 12.4446 52.0588
    endloop
  endfacet
  facet normal 0.707107 0 0.707107
    outer loop
      vertex 45.5201 15.391 45.1906
      vertex 44.546 12.0651 46.1647
      vertex 46.4981 14.6518 44.2126
    endloop
  endfacet
  facet normal 0.707129 -3.31846e-05 0.707085
    outer loop
      vertex 46.4981 14.6518 44.2126
      vertex 44.546 12.0651 46.1647
      vertex 47.3553 13.6569 43.3553
    endloop
  endfacet
  facet normal 0.707134 1.607e-05 0.707079
    outer loop
      vertex 41.1906 15.391 49.5201
      vertex 42.1647 12.0651 48.546
      vertex 43.3553 12.4 47.3553
    endloop
  endfacet
  facet normal 0.707086 -2.96948e-05 0.707128
    outer loop
      vertex 39.3553 13.6569 51.3553
      vertex 41.1553 11.1113 49.5553
      vertex 42.1647 12.0651 48.546
    endloop
  endfacet
  facet normal 0.707118 4.25583e-05 0.707095
    outer loop
      vertex 38.1291 11.0615 52.5816
      vertex 41.1553 11.1113 49.5553
      vertex 38.6518 12.4446 52.0588
    endloop
  endfacet
  facet normal 0.707118 3.87969e-05 0.707095
    outer loop
      vertex 38.1291 11.0615 52.5816
      vertex 40.4809 9.68381 50.2298
      vertex 41.1553 11.1113 49.5553
    endloop
  endfacet
  facet normal 0.707107 -3.95189e-16 0.707107
    outer loop
      vertex 37.8072 9.56072 52.9035
      vertex 40.4809 9.68381 50.2298
      vertex 38.1291 11.0615 52.5816
    endloop
  endfacet
  facet normal 0.707107 0 0.707107
    outer loop
      vertex 40.2441 8 50.4666
      vertex 37.8072 9.56072 52.9035
      vertex 37.6985 8 53.0122
    endloop
  endfacet
  facet normal 0.707107 2.80822e-15 0.707107
    outer loop
      vertex 37.8072 9.56072 52.9035
      vertex 40.2441 8 50.4666
      vertex 40.4809 9.68381 50.2298
    endloop
  endfacet
  facet normal 0.707107 0 0.707107
    outer loop
      vertex 37.8072 6.43928 52.9035
      vertex 40.2441 8 50.4666
      vertex 37.6985 8 53.0122
    endloop
  endfacet
  facet normal 0.707107 -2.80822e-15 0.707107
    outer loop
      vertex 37.8072 6.43928 52.9035
      vertex 40.4809 6.31619 50.2298
      vertex 40.2441 8 50.4666
    endloop
  endfacet
  facet normal 0.707107 4.14957e-16 0.707107
    outer loop
      vertex 38.1291 4.93853 52.5816
      vertex 40.4809 6.31619 50.2298
      vertex 37.8072 6.43928 52.9035
    endloop
  endfacet
  facet normal 0.707118 -3.87978e-05 0.707095
    outer loop
      vertex 38.1291 4.93853 52.5816
      vertex 41.1553 4.88873 49.5553
      vertex 40.4809 6.31619 50.2298
    endloop
  endfacet
  facet normal 0.707118 -4.25586e-05 0.707095
    outer loop
      vertex 38.6518 3.55544 52.0588
      vertex 41.1553 4.88873 49.5553
      vertex 38.1291 4.93853 52.5816
    endloop
  endfacet
  facet normal 0.707107 0 0.707107
    outer loop
      vertex 39.3553 2.34315 51.3553
      vertex 41.1553 4.88873 49.5553
      vertex 38.6518 3.55544 52.0588
    endloop
  endfacet
  facet normal 0.707086 2.9695e-05 0.707128
    outer loop
      vertex 41.1553 4.88873 49.5553
      vertex 39.3553 2.34315 51.3553
      vertex 42.1647 3.93493 48.546
    endloop
  endfacet
  facet normal 0.707128 -2.96948e-05 0.707086
    outer loop
      vertex 45.5553 11.1113 45.1553
      vertex 47.3553 13.6569 43.3553
      vertex 44.546 12.0651 46.1647
    endloop
  endfacet
  facet normal 0.707107 0 0.707107
    outer loop
      vertex 47.3553 13.6569 43.3553
      vertex 45.5553 11.1113 45.1553
      vertex 48.0588 12.4446 42.6518
    endloop
  endfacet
  facet normal 0.707095 4.25583e-05 0.707118
    outer loop
      vertex 45.5553 11.1113 45.1553
      vertex 48.5816 11.0615 42.1291
      vertex 48.0588 12.4446 42.6518
    endloop
  endfacet
  facet normal 0.707095 3.87969e-05 0.707118
    outer loop
      vertex 46.2298 9.68381 44.4809
      vertex 48.5816 11.0615 42.1291
      vertex 45.5553 11.1113 45.1553
    endloop
  endfacet
  facet normal 0.707107 5.40365e-14 0.707107
    outer loop
      vertex 48.9035 9.56072 41.8072
      vertex 46.2298 9.68381 44.4809
      vertex 46.2427 9.59193 44.468
    endloop
  endfacet
  facet normal 0.707107 -3.16152e-16 0.707107
    outer loop
      vertex 46.2298 9.68381 44.4809
      vertex 48.9035 9.56072 41.8072
      vertex 48.5816 11.0615 42.1291
    endloop
  endfacet
  facet normal 0.707107 0 0.707107
    outer loop
      vertex 49 8 41.7107
      vertex 48.9035 9.56072 41.8072
      vertex 46.2427 9.59193 44.468
    endloop
  endfacet
  facet normal 0.707107 0 0.707107
    outer loop
      vertex 49 8 41.7107
      vertex 49.0122 8 41.6985
      vertex 48.9035 9.56072 41.8072
    endloop
  endfacet
  facet normal 0.707107 0 0.707107
    outer loop
      vertex 49 8 41.7107
      vertex 48.9035 6.43928 41.8072
      vertex 49.0122 8 41.6985
    endloop
  endfacet
  facet normal 0.707107 0 0.707107
    outer loop
      vertex 46.2427 6.40807 44.468
      vertex 48.9035 6.43928 41.8072
      vertex 49 8 41.7107
    endloop
  endfacet
  facet normal 0.707107 -5.47803e-14 0.707107
    outer loop
      vertex 46.2298 6.31619 44.4809
      vertex 48.9035 6.43928 41.8072
      vertex 46.2427 6.40807 44.468
    endloop
  endfacet
  facet normal 0.707107 3.16158e-16 0.707107
    outer loop
      vertex 46.2298 6.31619 44.4809
      vertex 48.5816 4.93853 42.1291
      vertex 48.9035 6.43928 41.8072
    endloop
  endfacet
  facet normal 0.707095 -3.87978e-05 0.707118
    outer loop
      vertex 45.5553 4.88873 45.1553
      vertex 48.5816 4.93853 42.1291
      vertex 46.2298 6.31619 44.4809
    endloop
  endfacet
  facet normal 0.707128 2.9695e-05 0.707086
    outer loop
      vertex 47.3553 2.34315 43.3553
      vertex 45.5553 4.88873 45.1553
      vertex 44.546 3.93493 46.1647
    endloop
  endfacet
  facet normal 0.707079 -1.60696e-05 0.707134
    outer loop
      vertex 45.5201 0.608964 45.1906
      vertex 44.546 3.93493 46.1647
      vertex 43.3553 3.6 47.3553
    endloop
  endfacet
  facet normal 0.707095 -4.25586e-05 0.707118
    outer loop
      vertex 45.5553 4.88873 45.1553
      vertex 48.0588 3.55544 42.6518
      vertex 48.5816 4.93853 42.1291
    endloop
  endfacet
  facet normal 0.707085 3.31845e-05 0.707129
    outer loop
      vertex 40.2126 1.34824 50.4981
      vertex 42.1647 3.93493 48.546
      vertex 39.3553 2.34315 51.3553
    endloop
  endfacet
  facet normal 0.707107 0 0.707107
    outer loop
      vertex 41.1906 0.608964 49.5201
      vertex 42.1647 3.93493 48.546
      vertex 40.2126 1.34824 50.4981
    endloop
  endfacet
  facet normal 0.707107 0 0.707107
    outer loop
      vertex 45.5553 4.88873 45.1553
      vertex 47.3553 2.34315 43.3553
      vertex 48.0588 3.55544 42.6518
    endloop
  endfacet
  facet normal 0.707134 -1.60696e-05 0.707079
    outer loop
      vertex 42.1647 3.93493 48.546
      vertex 41.1906 0.608964 49.5201
      vertex 43.3553 3.6 47.3553
    endloop
  endfacet
  facet normal 0.707129 3.31845e-05 0.707085
    outer loop
      vertex 44.546 3.93493 46.1647
      vertex 46.4981 1.34824 44.2126
      vertex 47.3553 2.34315 43.3553
    endloop
  endfacet
  facet normal 0.707136 -1.87613e-05 0.707077
    outer loop
      vertex 42.2517 0.153718 48.4589
      vertex 43.3553 3.6 47.3553
      vertex 41.1906 0.608964 49.5201
    endloop
  endfacet
  facet normal 0.707107 0 0.707107
    outer loop
      vertex 44.546 3.93493 46.1647
      vertex 45.5201 0.608964 45.1906
      vertex 46.4981 1.34824 44.2126
    endloop
  endfacet
  facet normal 0.707107 -0 0.707107
    outer loop
      vertex 43.3553 0 47.3553
      vertex 43.3553 3.6 47.3553
      vertex 42.2517 0.153718 48.4589
    endloop
  endfacet
  facet normal 0.707077 -1.87613e-05 0.707136
    outer loop
      vertex 43.3553 3.6 47.3553
      vertex 44.4589 0.153718 46.2517
      vertex 45.5201 0.608964 45.1906
    endloop
  endfacet
  facet normal 0.707107 0 0.707107
    outer loop
      vertex 43.3553 3.6 47.3553
      vertex 43.3553 0 47.3553
      vertex 44.4589 0.153718 46.2517
    endloop
  endfacet
  facet normal -0.333298 0.881943 0.333299
    outer loop
      vertex 41.1906 15.391 49.5201
      vertex 4.85722 14.6518 15.1428
      vertex 40.2126 14.6518 50.4981
    endloop
  endfacet
  facet normal -0.333298 0.881943 0.333299
    outer loop
      vertex 4.85722 14.6518 15.1428
      vertex 41.1906 15.391 49.5201
      vertex 5.83522 15.391 14.1648
    endloop
  endfacet
  facet normal -0.0693005 0.995186 0.0693005
    outer loop
      vertex 43.3553 16 47.3553
      vertex 6.8964 15.8463 13.1036
      vertex 42.2517 15.8463 48.4589
    endloop
  endfacet
  facet normal -0.0693005 0.995186 0.0693005
    outer loop
      vertex 6.8964 15.8463 13.1036
      vertex 43.3553 16 47.3553
      vertex 8 16 12
    endloop
  endfacet
  facet normal 0.0693085 -0.995185 -0.0693085
    outer loop
      vertex 8 0 12
      vertex 44.4589 0.153718 46.2517
      vertex 43.3553 0 47.3553
    endloop
  endfacet
  facet normal 0.0693085 -0.995185 -0.0693085
    outer loop
      vertex 44.4589 0.153718 46.2517
      vertex 8 0 12
      vertex 9.1036 0.153718 10.8964
    endloop
  endfacet
  facet normal 0.333326 -0.881923 -0.333325
    outer loop
      vertex 10.1648 0.608964 9.83522
      vertex 46.4981 1.34824 44.2126
      vertex 45.5201 0.608964 45.1906
    endloop
  endfacet
  facet normal 0.333326 -0.881923 -0.333325
    outer loop
      vertex 46.4981 1.34824 44.2126
      vertex 10.1648 0.608964 9.83522
      vertex 11.1428 1.34824 8.85722
    endloop
  endfacet
  facet normal -0.448576 -0.773019 0.448576
    outer loop
      vertex 4 2.34315 16
      vertex 40.2126 1.34824 50.4981
      vertex 39.3553 2.34315 51.3553
    endloop
  endfacet
  facet normal -0.448588 -0.773004 0.448589
    outer loop
      vertex 40.2126 1.34824 50.4981
      vertex 4 2.34315 16
      vertex 4.85722 1.34824 15.1428
    endloop
  endfacet
  facet normal -0.205269 -0.956938 0.205269
    outer loop
      vertex 5.83522 0.608964 14.1648
      vertex 42.2517 0.153718 48.4589
      vertex 41.1906 0.608964 49.5201
    endloop
  endfacet
  facet normal -0.205262 -0.956941 0.205262
    outer loop
      vertex 42.2517 0.153718 48.4589
      vertex 5.83522 0.608964 14.1648
      vertex 6.8964 0.153718 13.1036
    endloop
  endfacet
  facet normal -0.623605 -0.471416 0.623605
    outer loop
      vertex 38.6518 3.55544 52.0588
      vertex 2.77375 4.93853 17.2263
      vertex 3.2965 3.55544 16.7035
    endloop
  endfacet
  facet normal -0.623611 -0.471398 0.623612
    outer loop
      vertex 2.77375 4.93853 17.2263
      vertex 38.6518 3.55544 52.0588
      vertex 38.1291 4.93853 52.5816
    endloop
  endfacet
  facet normal -0.703701 -0.0980174 0.703702
    outer loop
      vertex 37.8072 6.43928 52.9035
      vertex 2.34315 8 17.6569
      vertex 2.45184 6.43928 17.5482
    endloop
  endfacet
  facet normal -0.703701 -0.0980219 0.703702
    outer loop
      vertex 2.34315 8 17.6569
      vertex 37.8072 6.43928 52.9035
      vertex 37.6985 8 53.0122
    endloop
  endfacet
  facet normal 0.703702 -0.0980219 -0.703702
    outer loop
      vertex 48.9035 6.43928 41.8072
      vertex 49 8 41.6863
      vertex 49.0122 8 41.6985
    endloop
  endfacet
  facet normal 0.703702 -0.0980219 -0.703702
    outer loop
      vertex 49 8 41.6863
      vertex 48.9035 6.43928 41.8072
      vertex 46.2967 6.43928 39.2004
    endloop
  endfacet
  facet normal 0.703702 -0.0980219 -0.703702
    outer loop
      vertex 28 6.43928 20.9037
      vertex 19 8 11.6863
      vertex 28 8 20.6863
    endloop
  endfacet
  facet normal 0.7037 -0.0980323 -0.703702
    outer loop
      vertex 19 8 11.6863
      vertex 28 6.43928 20.9037
      vertex 16.2967 6.43928 9.20043
    endloop
  endfacet
  facet normal 0.703702 -0.0980219 -0.703702
    outer loop
      vertex 43 6.43928 35.9037
      vertex 34 8 26.6863
      vertex 43 8 35.6863
    endloop
  endfacet
  facet normal 0.703702 -0.0980219 -0.703702
    outer loop
      vertex 34 8 26.6863
      vertex 43 6.43928 35.9037
      vertex 31.2967 6.43928 24.2004
    endloop
  endfacet
  facet normal 0.205269 -0.956938 -0.205269
    outer loop
      vertex 9.1036 0.153718 10.8964
      vertex 45.5201 0.608964 45.1906
      vertex 44.4589 0.153718 46.2517
    endloop
  endfacet
  facet normal 0.205262 -0.956941 -0.205261
    outer loop
      vertex 45.5201 0.608964 45.1906
      vertex 9.1036 0.153718 10.8964
      vertex 10.1648 0.608964 9.83522
    endloop
  endfacet
  facet normal 0.623612 -0.471398 -0.623612
    outer loop
      vertex 48.0588 3.55544 42.6518
      vertex 43.6974 4.93853 37.2449
      vertex 48.5816 4.93853 42.1291
    endloop
  endfacet
  facet normal 0.62362 -0.471376 -0.62362
    outer loop
      vertex 43 4.5359 36.8519
      vertex 48.0588 3.55544 42.6518
      vertex 28 4.5359 21.8519
    endloop
  endfacet
  facet normal 0.62359 -0.471438 -0.623604
    outer loop
      vertex 43.6974 4.93853 37.2449
      vertex 48.0588 3.55544 42.6518
      vertex 43 4.5359 36.8519
    endloop
  endfacet
  facet normal 0.623591 -0.471453 -0.623591
    outer loop
      vertex 43 4.5359 36.8519
      vertex 28.6974 4.93853 22.2449
      vertex 43 4.93853 36.5475
    endloop
  endfacet
  facet normal 0.623591 -0.471453 -0.623591
    outer loop
      vertex 28.6974 4.93853 22.2449
      vertex 43 4.5359 36.8519
      vertex 28 4.5359 21.8519
    endloop
  endfacet
  facet normal 0.62361 -0.471406 -0.623609
    outer loop
      vertex 12.7035 3.55544 7.2965
      vertex 13.6974 4.93853 7.24488
      vertex 28 4.93853 21.5475
    endloop
  endfacet
  facet normal 0.623595 -0.471451 -0.623589
    outer loop
      vertex 12.7035 3.55544 7.2965
      vertex 28 4.93853 21.5475
      vertex 28 4.5359 21.8519
    endloop
  endfacet
  facet normal 0.62362 -0.471376 -0.62362
    outer loop
      vertex 12.7035 3.55544 7.2965
      vertex 28 4.5359 21.8519
      vertex 48.0588 3.55544 42.6518
    endloop
  endfacet
  facet normal 0.623567 -0.471378 -0.623672
    outer loop
      vertex 13.6974 4.93853 7.24488
      vertex 12.7035 3.55544 7.2965
      vertex 13.0947 4.5906 6.90525
    endloop
  endfacet
  facet normal 0.546601 -0.634393 -0.546601
    outer loop
      vertex 12 2.34315 8
      vertex 48.0588 3.55544 42.6518
      vertex 47.3553 2.34315 43.3553
    endloop
  endfacet
  facet normal 0.546601 -0.634393 -0.546601
    outer loop
      vertex 48.0588 3.55544 42.6518
      vertex 12 2.34315 8
      vertex 12.7035 3.55544 7.2965
    endloop
  endfacet
  facet normal 0.676661 -0.290278 -0.676661
    outer loop
      vertex 48.5816 4.93853 42.1291
      vertex 46.2967 6.43928 39.2004
      vertex 48.9035 6.43928 41.8072
    endloop
  endfacet
  facet normal 0.676661 -0.290278 -0.676661
    outer loop
      vertex 46.2967 6.43928 39.2004
      vertex 48.5816 4.93853 42.1291
      vertex 43.6974 4.93853 37.2449
    endloop
  endfacet
  facet normal 0.67666 -0.290278 -0.676661
    outer loop
      vertex 28 4.93853 21.5475
      vertex 16.2967 6.43928 9.20043
      vertex 28 6.43928 20.9037
    endloop
  endfacet
  facet normal 0.676665 -0.290258 -0.676664
    outer loop
      vertex 16.2967 6.43928 9.20043
      vertex 28 4.93853 21.5475
      vertex 13.6974 4.93853 7.24488
    endloop
  endfacet
  facet normal 0.676661 -0.290278 -0.676661
    outer loop
      vertex 43 4.93853 36.5475
      vertex 31.2967 6.43928 24.2004
      vertex 43 6.43928 35.9037
    endloop
  endfacet
  facet normal 0.676661 -0.290278 -0.676661
    outer loop
      vertex 31.2967 6.43928 24.2004
      vertex 43 4.93853 36.5475
      vertex 28.6974 4.93853 22.2449
    endloop
  endfacet
  facet normal -0.333325 -0.881923 0.333326
    outer loop
      vertex 4.85722 1.34824 15.1428
      vertex 41.1906 0.608964 49.5201
      vertex 40.2126 1.34824 50.4981
    endloop
  endfacet
  facet normal -0.333325 -0.881923 0.333326
    outer loop
      vertex 41.1906 0.608964 49.5201
      vertex 4.85722 1.34824 15.1428
      vertex 5.83522 0.608964 14.1648
    endloop
  endfacet
  facet normal -0.0693085 -0.995185 0.0693085
    outer loop
      vertex 6.8964 0.153718 13.1036
      vertex 43.3553 0 47.3553
      vertex 42.2517 0.153718 48.4589
    endloop
  endfacet
  facet normal -0.0693085 -0.995185 0.0693085
    outer loop
      vertex 43.3553 0 47.3553
      vertex 6.8964 0.153718 13.1036
      vertex 8 0 12
    endloop
  endfacet
  facet normal -0.676659 -0.290282 0.67666
    outer loop
      vertex 38.1291 4.93853 52.5816
      vertex 2.45184 6.43928 17.5482
      vertex 2.77375 4.93853 17.2263
    endloop
  endfacet
  facet normal -0.67666 -0.290278 0.676661
    outer loop
      vertex 2.45184 6.43928 17.5482
      vertex 38.1291 4.93853 52.5816
      vertex 37.8072 6.43928 52.9035
    endloop
  endfacet
  facet normal -0.693529 -0.195117 0.693503
    outer loop
      vertex 13 8 10.7775
      vertex 10.8744 9.68381 9.12556
      vertex 11.1113 8 8.88873
    endloop
  endfacet
  facet normal -0.693513 -0.195068 0.693533
    outer loop
      vertex 10.8744 9.68381 9.12556
      vertex 13 8 10.7775
      vertex 13 9.68381 11.2511
    endloop
  endfacet
  facet normal -0.693567 -0.194754 0.693567
    outer loop
      vertex 46.2427 9.59193 44.468
      vertex 46.2298 9.68381 44.4809
      vertex 46.0836 9.68381 44.3347
    endloop
  endfacet
  facet normal -0.693522 -0.195077 0.693522
    outer loop
      vertex 16.8779 9.2252 15
      vertex 28 9.68381 26.2511
      vertex 16.0836 9.68381 14.3347
    endloop
  endfacet
  facet normal -0.693524 -0.195061 0.693524
    outer loop
      vertex 28 8 25.7775
      vertex 16.8779 9.2252 15
      vertex 17.2225 8 15
    endloop
  endfacet
  facet normal -0.693524 -0.195065 0.693523
    outer loop
      vertex 16.8779 9.2252 15
      vertex 28 8 25.7775
      vertex 28 9.68381 26.2511
    endloop
  endfacet
  facet normal -0.693522 -0.195077 0.693522
    outer loop
      vertex 31.8779 9.2252 30
      vertex 43 9.68381 41.2511
      vertex 31.0836 9.68381 29.3347
    endloop
  endfacet
  facet normal -0.693524 -0.195061 0.693524
    outer loop
      vertex 43 8 40.7775
      vertex 31.8779 9.2252 30
      vertex 32.2225 8 30
    endloop
  endfacet
  facet normal -0.693524 -0.195065 0.693523
    outer loop
      vertex 31.8779 9.2252 30
      vertex 43 8 40.7775
      vertex 43 9.68381 41.2511
    endloop
  endfacet
  facet normal 0.693523 -0.195065 -0.693524
    outer loop
      vertex 4.88873 8 15.1113
      vertex 40.4809 9.68381 50.2298
      vertex 40.2441 8 50.4666
    endloop
  endfacet
  facet normal 0.693517 -0.195117 -0.693516
    outer loop
      vertex 40.4809 9.68381 50.2298
      vertex 4.88873 8 15.1113
      vertex 5.12556 9.68381 14.8744
    endloop
  endfacet
  facet normal -0.137936 -0.980789 0.137936
    outer loop
      vertex 8 12.4 12
      vertex 44.546 12.0651 46.1647
      vertex 43.3553 12.4 47.3553
    endloop
  endfacet
  facet normal -0.137939 -0.980788 0.13794
    outer loop
      vertex 44.546 12.0651 46.1647
      vertex 8 12.4 12
      vertex 9.19063 12.0651 10.8094
    endloop
  endfacet
  facet normal -0.587938 -0.555552 0.587955
    outer loop
      vertex 13 9.68381 11.2511
      vertex 10.2 11.1113 9.8
      vertex 10.8744 9.68381 9.12556
    endloop
  endfacet
  facet normal -0.587938 -0.555569 0.587938
    outer loop
      vertex 10.2 11.1113 9.8
      vertex 13 9.68381 11.2511
      vertex 13 11.1113 12.6
    endloop
  endfacet
  facet normal -0.587938 -0.555569 0.587938
    outer loop
      vertex 45.5553 11.1113 45.1553
      vertex 46.0836 9.68381 44.3347
      vertex 46.2298 9.68381 44.4809
    endloop
  endfacet
  facet normal -0.587938 -0.555569 0.587938
    outer loop
      vertex 46.0836 9.68381 44.3347
      vertex 45.5553 11.1113 45.1553
      vertex 43.6111 11.1113 43.2111
    endloop
  endfacet
  facet normal -0.587938 -0.555569 0.587938
    outer loop
      vertex 28 9.68381 26.2511
      vertex 13.6111 11.1113 13.2111
      vertex 16.0836 9.68381 14.3347
    endloop
  endfacet
  facet normal -0.587938 -0.555569 0.587938
    outer loop
      vertex 13.6111 11.1113 13.2111
      vertex 28 9.68381 26.2511
      vertex 28 11.1113 27.6
    endloop
  endfacet
  facet normal -0.587938 -0.555569 0.587938
    outer loop
      vertex 43 9.68381 41.2511
      vertex 28.6111 11.1113 28.2111
      vertex 31.0836 9.68381 29.3347
    endloop
  endfacet
  facet normal -0.587938 -0.555569 0.587938
    outer loop
      vertex 28.6111 11.1113 28.2111
      vertex 43 9.68381 41.2511
      vertex 43 11.1113 42.6
    endloop
  endfacet
  facet normal -0.587934 0.55556 0.587951
    outer loop
      vertex 10.2 4.88873 9.8
      vertex 13 6.31619 11.2511
      vertex 10.8744 6.31619 9.12556
    endloop
  endfacet
  facet normal -0.587934 0.555578 0.587934
    outer loop
      vertex 13 6.31619 11.2511
      vertex 10.2 4.88873 9.8
      vertex 13 4.88873 12.6
    endloop
  endfacet
  facet normal -0.587934 0.555578 0.587934
    outer loop
      vertex 45.5553 4.88873 45.1553
      vertex 46.0836 6.31619 44.3347
      vertex 43.6111 4.88873 43.2111
    endloop
  endfacet
  facet normal -0.587934 0.555578 0.587934
    outer loop
      vertex 46.0836 6.31619 44.3347
      vertex 45.5553 4.88873 45.1553
      vertex 46.2298 6.31619 44.4809
    endloop
  endfacet
  facet normal -0.587934 0.555578 0.587934
    outer loop
      vertex 13.6111 4.88873 13.2111
      vertex 28 6.31619 26.2511
      vertex 16.0836 6.31619 14.3347
    endloop
  endfacet
  facet normal -0.587934 0.555578 0.587934
    outer loop
      vertex 28 6.31619 26.2511
      vertex 13.6111 4.88873 13.2111
      vertex 28 4.88873 27.6
    endloop
  endfacet
  facet normal -0.587934 0.555578 0.587934
    outer loop
      vertex 28.6111 4.88873 28.2111
      vertex 43 6.31619 41.2511
      vertex 31.0836 6.31619 29.3347
    endloop
  endfacet
  facet normal -0.587934 0.555578 0.587934
    outer loop
      vertex 43 6.31619 41.2511
      vertex 28.6111 4.88873 28.2111
      vertex 43 4.88873 42.6
    endloop
  endfacet
  facet normal -0.392837 0.831479 0.392837
    outer loop
      vertex 28 4.88873 27.6
      vertex 13.6111 4.88873 13.2111
      vertex 13 4.5359 13.3468
    endloop
  endfacet
  facet normal -0.392837 0.831479 0.392837
    outer loop
      vertex 43 4.88873 42.6
      vertex 28.6111 4.88873 28.2111
      vertex 28 4.5359 28.3468
    endloop
  endfacet
  facet normal -0.392832 0.831476 0.39285
    outer loop
      vertex 44.546 3.93493 46.1647
      vertex 43.6111 4.88873 43.2111
      vertex 43 4.5359 43.3468
    endloop
  endfacet
  facet normal -0.392852 0.831465 0.392852
    outer loop
      vertex 43.6111 4.88873 43.2111
      vertex 44.546 3.93493 46.1647
      vertex 45.5553 4.88873 45.1553
    endloop
  endfacet
  facet normal -0.392837 0.831479 0.392837
    outer loop
      vertex 28 4.5359 28.3468
      vertex 43 4.5359 43.3468
      vertex 43 4.88873 42.6
    endloop
  endfacet
  facet normal -0.392861 0.831456 0.392861
    outer loop
      vertex 28 4.5359 28.3468
      vertex 44.546 3.93493 46.1647
      vertex 43 4.5359 43.3468
    endloop
  endfacet
  facet normal -0.392837 0.831479 0.392837
    outer loop
      vertex 13 4.5359 13.3468
      vertex 28 4.5359 28.3468
      vertex 28 4.88873 27.6
    endloop
  endfacet
  facet normal -0.392846 0.831471 0.392846
    outer loop
      vertex 9.19063 3.93493 10.8094
      vertex 28 4.5359 28.3468
      vertex 13 4.5359 13.3468
    endloop
  endfacet
  facet normal -0.392854 0.831463 0.392855
    outer loop
      vertex 28 4.5359 28.3468
      vertex 9.19063 3.93493 10.8094
      vertex 44.546 3.93493 46.1647
    endloop
  endfacet
  facet normal -0.392841 0.831478 0.392837
    outer loop
      vertex 13 4.88873 12.6
      vertex 9.19063 3.93493 10.8094
      vertex 13 4.5359 13.3468
    endloop
  endfacet
  facet normal -0.392843 0.831474 0.392843
    outer loop
      vertex 9.19063 3.93493 10.8094
      vertex 13 4.88873 12.6
      vertex 10.2 4.88873 9.8
    endloop
  endfacet
  facet normal 0.137948 0.980786 -0.137947
    outer loop
      vertex 43.3553 3.6 47.3553
      vertex 6.80937 3.93493 13.1906
      vertex 42.1647 3.93493 48.546
    endloop
  endfacet
  facet normal 0.137951 0.980785 -0.137951
    outer loop
      vertex 6.80937 3.93493 13.1906
      vertex 43.3553 3.6 47.3553
      vertex 8 3.6 12
    endloop
  endfacet
  facet normal 0.137936 -0.980789 -0.137936
    outer loop
      vertex 6.80937 12.0651 13.1906
      vertex 43.3553 12.4 47.3553
      vertex 42.1647 12.0651 48.546
    endloop
  endfacet
  facet normal 0.13794 -0.980788 -0.13794
    outer loop
      vertex 43.3553 12.4 47.3553
      vertex 6.80937 12.0651 13.1906
      vertex 8 12.4 12
    endloop
  endfacet
  facet normal 0.587938 -0.555569 -0.587938
    outer loop
      vertex 40.4809 9.68381 50.2298
      vertex 5.8 11.1113 14.2
      vertex 41.1553 11.1113 49.5553
    endloop
  endfacet
  facet normal 0.587947 -0.555552 -0.587946
    outer loop
      vertex 5.8 11.1113 14.2
      vertex 40.4809 9.68381 50.2298
      vertex 5.12556 9.68381 14.8744
    endloop
  endfacet
  facet normal 0.392852 -0.831465 -0.392852
    outer loop
      vertex 5.8 11.1113 14.2
      vertex 42.1647 12.0651 48.546
      vertex 41.1553 11.1113 49.5553
    endloop
  endfacet
  facet normal 0.392843 -0.831474 -0.392843
    outer loop
      vertex 42.1647 12.0651 48.546
      vertex 5.8 11.1113 14.2
      vertex 6.80937 12.0651 13.1906
    endloop
  endfacet
  facet normal 0.693523 0.195065 -0.693524
    outer loop
      vertex 40.4809 6.31619 50.2298
      vertex 4.88873 8 15.1113
      vertex 40.2441 8 50.4666
    endloop
  endfacet
  facet normal 0.693517 0.195117 -0.693516
    outer loop
      vertex 4.88873 8 15.1113
      vertex 40.4809 6.31619 50.2298
      vertex 5.12556 6.31619 14.8744
    endloop
  endfacet
  facet normal 0.392852 0.831465 -0.392852
    outer loop
      vertex 42.1647 3.93493 48.546
      vertex 5.8 4.88873 14.2
      vertex 41.1553 4.88873 49.5553
    endloop
  endfacet
  facet normal 0.392843 0.831474 -0.392843
    outer loop
      vertex 5.8 4.88873 14.2
      vertex 42.1647 3.93493 48.546
      vertex 6.80937 3.93493 13.1906
    endloop
  endfacet
  facet normal -0.392802 -0.831492 0.392845
    outer loop
      vertex 43.6111 11.1113 43.2111
      vertex 44.546 12.0651 46.1647
      vertex 43 11.4641 43.3468
    endloop
  endfacet
  facet normal -0.392814 -0.831501 0.392814
    outer loop
      vertex 43 11.4641 43.3468
      vertex 28 11.4641 28.3468
      vertex 43 11.1113 42.6
    endloop
  endfacet
  facet normal -0.392875 -0.831444 0.392875
    outer loop
      vertex 44.546 12.0651 46.1647
      vertex 28 11.4641 28.3468
      vertex 43 11.4641 43.3468
    endloop
  endfacet
  facet normal -0.392814 -0.831501 0.392814
    outer loop
      vertex 28 11.4641 28.3468
      vertex 13 11.4641 13.3468
      vertex 28 11.1113 27.6
    endloop
  endfacet
  facet normal -0.392867 -0.831451 0.392868
    outer loop
      vertex 9.19063 12.0651 10.8094
      vertex 28 11.4641 28.3468
      vertex 44.546 12.0651 46.1647
    endloop
  endfacet
  facet normal -0.39286 -0.831458 0.39286
    outer loop
      vertex 28 11.4641 28.3468
      vertex 9.19063 12.0651 10.8094
      vertex 13 11.4641 13.3468
    endloop
  endfacet
  facet normal -0.392833 -0.831494 0.392811
    outer loop
      vertex 9.19063 12.0651 10.8094
      vertex 13 11.1113 12.6
      vertex 13 11.4641 13.3468
    endloop
  endfacet
  facet normal -0.392843 -0.831474 0.392843
    outer loop
      vertex 13 11.1113 12.6
      vertex 9.19063 12.0651 10.8094
      vertex 10.2 11.1113 9.8
    endloop
  endfacet
  facet normal -0.392852 -0.831465 0.392852
    outer loop
      vertex 44.546 12.0651 46.1647
      vertex 43.6111 11.1113 43.2111
      vertex 45.5553 11.1113 45.1553
    endloop
  endfacet
  facet normal -0.392814 -0.831501 0.392814
    outer loop
      vertex 43 11.1113 42.6
      vertex 28 11.4641 28.3468
      vertex 28.6111 11.1113 28.2111
    endloop
  endfacet
  facet normal -0.392814 -0.831501 0.392814
    outer loop
      vertex 28 11.1113 27.6
      vertex 13 11.4641 13.3468
      vertex 13.6111 11.1113 13.2111
    endloop
  endfacet
  facet normal -0.137948 0.980786 0.137948
    outer loop
      vertex 44.546 3.93493 46.1647
      vertex 8 3.6 12
      vertex 43.3553 3.6 47.3553
    endloop
  endfacet
  facet normal -0.137951 0.980785 0.137952
    outer loop
      vertex 8 3.6 12
      vertex 44.546 3.93493 46.1647
      vertex 9.19063 3.93493 10.8094
    endloop
  endfacet
  facet normal 0.587934 0.555578 -0.587934
    outer loop
      vertex 5.8 4.88873 14.2
      vertex 40.4809 6.31619 50.2298
      vertex 41.1553 4.88873 49.5553
    endloop
  endfacet
  facet normal 0.587943 0.55556 -0.587942
    outer loop
      vertex 40.4809 6.31619 50.2298
      vertex 5.8 4.88873 14.2
      vertex 5.12556 6.31619 14.8744
    endloop
  endfacet
  facet normal -0.693529 0.195117 0.693503
    outer loop
      vertex 10.8744 6.31619 9.12556
      vertex 13 8 10.7775
      vertex 11.1113 8 8.88873
    endloop
  endfacet
  facet normal -0.693513 0.195068 0.693533
    outer loop
      vertex 13 8 10.7775
      vertex 10.8744 6.31619 9.12556
      vertex 13 6.31619 11.2511
    endloop
  endfacet
  facet normal -0.693567 0.194754 0.693567
    outer loop
      vertex 46.2298 6.31619 44.4809
      vertex 46.2427 6.40807 44.468
      vertex 46.0836 6.31619 44.3347
    endloop
  endfacet
  facet normal -0.693523 0.195065 0.693523
    outer loop
      vertex 17.2225 8 15
      vertex 28 6.31619 26.2511
      vertex 28 8 25.7775
    endloop
  endfacet
  facet normal -0.693524 0.195061 0.693524
    outer loop
      vertex 16.8779 6.7748 15
      vertex 28 6.31619 26.2511
      vertex 17.2225 8 15
    endloop
  endfacet
  facet normal -0.693522 0.195077 0.693522
    outer loop
      vertex 28 6.31619 26.2511
      vertex 16.8779 6.7748 15
      vertex 16.0836 6.31619 14.3347
    endloop
  endfacet
  facet normal -0.693524 0.195061 0.693524
    outer loop
      vertex 31.8779 6.7748 30
      vertex 43 8 40.7775
      vertex 32.2225 8 30
    endloop
  endfacet
  facet normal -0.693522 0.195077 0.693522
    outer loop
      vertex 43 6.31619 41.2511
      vertex 31.8779 6.7748 30
      vertex 31.0836 6.31619 29.3347
    endloop
  endfacet
  facet normal -0.693524 0.195065 0.693523
    outer loop
      vertex 31.8779 6.7748 30
      vertex 43 6.31619 41.2511
      vertex 43 8 40.7775
    endloop
  endfacet
  facet normal -1 0 0
    outer loop
      vertex 0 0 -9
      vertex 0 50 3
      vertex 0 50 -9
    endloop
  endfacet
  facet normal -1 -0 0
    outer loop
      vertex 0 50 3
      vertex 0 0 -9
      vertex 0 0 3
    endloop
  endfacet
  facet normal 0 0 1
    outer loop
      vertex 50 50 3
      vertex 49 8 3
      vertex 50 0 3
    endloop
  endfacet
  facet normal 0 0 1
    outer loop
      vertex 46.4142 43.5858 3
      vertex 50 50 3
      vertex 47 45 3
    endloop
  endfacet
  facet normal 0 0 1
    outer loop
      vertex 50 50 3
      vertex 46.4142 46.4142 3
      vertex 47 45 3
    endloop
  endfacet
  facet normal 0 0 1
    outer loop
      vertex 50 50 3
      vertex 45 47 3
      vertex 46.4142 46.4142 3
    endloop
  endfacet
  facet normal 0 0 1
    outer loop
      vertex 50 50 3
      vertex 43.5858 46.4142 3
      vertex 45 47 3
    endloop
  endfacet
  facet normal 0 0 1
    outer loop
      vertex 45 43 3
      vertex 27 25 3
      vertex 43 11.4641 3
    endloop
  endfacet
  facet normal -0 0 1
    outer loop
      vertex 26.4142 23.5858 3
      vertex 43 11.4641 3
      vertex 27 25 3
    endloop
  endfacet
  facet normal 0 0 1
    outer loop
      vertex 43 11.4641 3
      vertex 34 8 3
      vertex 43 4.5359 3
    endloop
  endfacet
  facet normal 0 0 1
    outer loop
      vertex 0 50 3
      vertex 43 45 3
      vertex 43.5858 46.4142 3
    endloop
  endfacet
  facet normal 0 0 1
    outer loop
      vertex 43 11.4641 3
      vertex 28 11.4641 3
      vertex 34 8 3
    endloop
  endfacet
  facet normal 0 -0 1
    outer loop
      vertex 28 11.4641 3
      vertex 43 11.4641 3
      vertex 26.4142 23.5858 3
    endloop
  endfacet
  facet normal 0 0 1
    outer loop
      vertex 43 45 3
      vertex 26.4142 26.4142 3
      vertex 27 25 3
    endloop
  endfacet
  facet normal 0 0 1
    outer loop
      vertex 43 45 3
      vertex 25 27 3
      vertex 26.4142 26.4142 3
    endloop
  endfacet
  facet normal 0 0 1
    outer loop
      vertex 43 45 3
      vertex 0 50 3
      vertex 25 27 3
    endloop
  endfacet
  facet normal 0 0 1
    outer loop
      vertex 23.5858 23.5858 3
      vertex 13 11.4641 3
      vertex 19 8 3
    endloop
  endfacet
  facet normal 0 0 1
    outer loop
      vertex 0 50 3
      vertex 23 25 3
      vertex 23.5858 26.4142 3
    endloop
  endfacet
  facet normal 0 0 1
    outer loop
      vertex 0 0 3
      vertex 13 11.4641 3
      vertex 0 50 3
    endloop
  endfacet
  facet normal 0 0 1
    outer loop
      vertex 23 25 3
      vertex 0 50 3
      vertex 13 11.4641 3
    endloop
  endfacet
  facet normal 0 0 1
    outer loop
      vertex 25 27 3
      vertex 0 50 3
      vertex 23.5858 26.4142 3
    endloop
  endfacet
  facet normal -0 0 1
    outer loop
      vertex 0 50 3
      vertex 43.5858 46.4142 3
      vertex 50 50 3
    endloop
  endfacet
  facet normal -0 0 1
    outer loop
      vertex 43 4.5359 3
      vertex 50 0 3
      vertex 49 8 3
    endloop
  endfacet
  facet normal 0 0 1
    outer loop
      vertex 28 4.5359 3
      vertex 43 4.5359 3
      vertex 34 8 3
    endloop
  endfacet
  facet normal 0 0 1
    outer loop
      vertex 43 4.5359 3
      vertex 28 4.5359 3
      vertex 50 0 3
    endloop
  endfacet
  facet normal -0 0 1
    outer loop
      vertex 25 23 3
      vertex 28 11.4641 3
      vertex 26.4142 23.5858 3
    endloop
  endfacet
  facet normal 0 0 1
    outer loop
      vertex 19 8 3
      vertex 28 11.4641 3
      vertex 25 23 3
    endloop
  endfacet
  facet normal 0 0 1
    outer loop
      vertex 19 8 3
      vertex 25 23 3
      vertex 23.5858 23.5858 3
    endloop
  endfacet
  facet normal 0 0 1
    outer loop
      vertex 13 11.4641 3
      vertex 23.5858 23.5858 3
      vertex 23 25 3
    endloop
  endfacet
  facet normal 0 0 1
    outer loop
      vertex 28 11.4641 3
      vertex 19 8 3
      vertex 28 4.5359 3
    endloop
  endfacet
  facet normal 0 0 1
    outer loop
      vertex 13 4.5359 3
      vertex 28 4.5359 3
      vertex 19 8 3
    endloop
  endfacet
  facet normal 0 0 1
    outer loop
      vertex 0 0 3
      vertex 28 4.5359 3
      vertex 13 4.5359 3
    endloop
  endfacet
  facet normal 0 0 1
    outer loop
      vertex 28 4.5359 3
      vertex 0 0 3
      vertex 50 0 3
    endloop
  endfacet
  facet normal 0 0 1
    outer loop
      vertex 13 11.4641 3
      vertex 0 0 3
      vertex 13 4.5359 3
    endloop
  endfacet
  facet normal 0 0 1
    outer loop
      vertex 50 50 3
      vertex 46.4142 43.5858 3
      vertex 49 8 3
    endloop
  endfacet
  facet normal 0 0 1
    outer loop
      vertex 43 11.4641 3
      vertex 46.4142 43.5858 3
      vertex 45 43 3
    endloop
  endfacet
  facet normal 0 0 1
    outer loop
      vertex 27 25 3
      vertex 45 43 3
      vertex 43.5858 43.5858 3
    endloop
  endfacet
  facet normal 0 0 1
    outer loop
      vertex 27 25 3
      vertex 43.5858 43.5858 3
      vertex 43 45 3
    endloop
  endfacet
  facet normal 0 0 1
    outer loop
      vertex 46.4142 43.5858 3
      vertex 43 11.4641 3
      vertex 49 8 3
    endloop
  endfacet
  facet normal 1 0 0
    outer loop
      vertex 50 50 3
      vertex 50 3 0
      vertex 50 50 0
    endloop
  endfacet
  facet normal 1 -0 0
    outer loop
      vertex 50 0 3
      vertex 50 3 0
      vertex 50 50 3
    endloop
  endfacet
  facet normal 1 0 0
    outer loop
      vertex 50 0 -9
      vertex 50 3 0
      vertex 50 0 3
    endloop
  endfacet
  facet normal 1 0 0
    outer loop
      vertex 50 3 0
      vertex 50 0 -9
      vertex 50 3 -9
    endloop
  endfacet
  facet normal 0 1 0
    outer loop
      vertex 3 50 0
      vertex 50 50 3
      vertex 50 50 0
    endloop
  endfacet
  facet normal 0 1 0
    outer loop
      vertex 50 50 3
      vertex 3 50 0
      vertex 0 50 3
    endloop
  endfacet
  facet normal 0 1 0
    outer loop
      vertex 0 50 -9
      vertex 3 50 0
      vertex 3 50 -9
    endloop
  endfacet
  facet normal 0 1 0
    outer loop
      vertex 3 50 0
      vertex 0 50 -9
      vertex 0 50 3
    endloop
  endfacet
  facet normal 0 0 -1
    outer loop
      vertex 46.4142 43.5858 0
      vertex 50 50 0
      vertex 50 3 0
    endloop
  endfacet
  facet normal 0 0 -1
    outer loop
      vertex 50 50 0
      vertex 46.4142 43.5858 0
      vertex 47 45 0
    endloop
  endfacet
  facet normal 0 0 -1
    outer loop
      vertex 50 3 0
      vertex 45 43 0
      vertex 46.4142 43.5858 0
    endloop
  endfacet
  facet normal 0 0 -1
    outer loop
      vertex 27 25 0
      vertex 45 43 0
      vertex 50 3 0
    endloop
  endfacet
  facet normal -0 0 -1
    outer loop
      vertex 45 43 0
      vertex 27 25 0
      vertex 43.5858 43.5858 0
    endloop
  endfacet
  facet normal 0 0 -1
    outer loop
      vertex 26.4142 26.4142 0
      vertex 43.5858 43.5858 0
      vertex 27 25 0
    endloop
  endfacet
  facet normal 0 0 -1
    outer loop
      vertex 50 3 0
      vertex 26.4142 23.5858 0
      vertex 27 25 0
    endloop
  endfacet
  facet normal 0 0 -1
    outer loop
      vertex 50 3 0
      vertex 25 23 0
      vertex 26.4142 23.5858 0
    endloop
  endfacet
  facet normal 0 0 -1
    outer loop
      vertex 3 3 0
      vertex 25 23 0
      vertex 50 3 0
    endloop
  endfacet
  facet normal -0 0 -1
    outer loop
      vertex 23.5858 23.5858 0
      vertex 3 3 0
      vertex 23 25 0
    endloop
  endfacet
  facet normal -0 0 -1
    outer loop
      vertex 25 23 0
      vertex 3 3 0
      vertex 23.5858 23.5858 0
    endloop
  endfacet
  facet normal 0 0 -1
    outer loop
      vertex 46.4142 46.4142 0
      vertex 50 50 0
      vertex 47 45 0
    endloop
  endfacet
  facet normal 0 0 -1
    outer loop
      vertex 45 47 0
      vertex 50 50 0
      vertex 46.4142 46.4142 0
    endloop
  endfacet
  facet normal 0 0 -1
    outer loop
      vertex 43.5858 46.4142 0
      vertex 50 50 0
      vertex 45 47 0
    endloop
  endfacet
  facet normal -0 0 -1
    outer loop
      vertex 43.5858 43.5858 0
      vertex 26.4142 26.4142 0
      vertex 43 45 0
    endloop
  endfacet
  facet normal 0 0 -1
    outer loop
      vertex 25 27 0
      vertex 43 45 0
      vertex 26.4142 26.4142 0
    endloop
  endfacet
  facet normal 0 0 -1
    outer loop
      vertex 3 50 0
      vertex 43 45 0
      vertex 25 27 0
    endloop
  endfacet
  facet normal 0 0 -1
    outer loop
      vertex 3 50 0
      vertex 25 27 0
      vertex 23.5858 26.4142 0
    endloop
  endfacet
  facet normal 0 0 -1
    outer loop
      vertex 3 50 0
      vertex 23 25 0
      vertex 3 3 0
    endloop
  endfacet
  facet normal 0 0 -1
    outer loop
      vertex 43.5858 46.4142 0
      vertex 3 50 0
      vertex 50 50 0
    endloop
  endfacet
  facet normal 0 0 -1
    outer loop
      vertex 43 45 0
      vertex 3 50 0
      vertex 43.5858 46.4142 0
    endloop
  endfacet
  facet normal 0 0 -1
    outer loop
      vertex 23 25 0
      vertex 3 50 0
      vertex 23.5858 26.4142 0
    endloop
  endfacet
  facet normal 0 -1 0
    outer loop
      vertex 0 0 -9
      vertex 50 0 3
      vertex 0 0 3
    endloop
  endfacet
  facet normal 0 -1 -0
    outer loop
      vertex 50 0 3
      vertex 0 0 -9
      vertex 50 0 -9
    endloop
  endfacet
  facet normal -0.923875 -0.382694 0
    outer loop
      vertex 47 45 0
      vertex 46.4142 46.4142 3
      vertex 46.4142 46.4142 0
    endloop
  endfacet
  facet normal -0.923875 -0.382694 0
    outer loop
      vertex 46.4142 46.4142 3
      vertex 47 45 0
      vertex 47 45 3
    endloop
  endfacet
  facet normal 0.382694 -0.923875 0
    outer loop
      vertex 43.5858 46.4142 0
      vertex 45 47 3
      vertex 43.5858 46.4142 3
    endloop
  endfacet
  facet normal 0.382694 -0.923875 0
    outer loop
      vertex 45 47 3
      vertex 43.5858 46.4142 0
      vertex 45 47 0
    endloop
  endfacet
  facet normal -0.382694 -0.923875 0
    outer loop
      vertex 45 47 0
      vertex 46.4142 46.4142 3
      vertex 45 47 3
    endloop
  endfacet
  facet normal -0.382694 -0.923875 -0
    outer loop
      vertex 46.4142 46.4142 3
      vertex 45 47 0
      vertex 46.4142 46.4142 0
    endloop
  endfacet
  facet normal 0.923875 -0.382694 0
    outer loop
      vertex 43 45 3
      vertex 43.5858 46.4142 0
      vertex 43.5858 46.4142 3
    endloop
  endfacet
  facet normal 0.923875 -0.382694 0
    outer loop
      vertex 43.5858 46.4142 0
      vertex 43 45 3
      vertex 43 45 0
    endloop
  endfacet
  facet normal -0.923875 0.382694 0
    outer loop
      vertex 46.4142 43.5858 0
      vertex 47 45 3
      vertex 47 45 0
    endloop
  endfacet
  facet normal -0.923875 0.382694 0
    outer loop
      vertex 47 45 3
      vertex 46.4142 43.5858 0
      vertex 46.4142 43.5858 3
    endloop
  endfacet
  facet normal 0.382694 0.923875 -0
    outer loop
      vertex 45 43 0
      vertex 43.5858 43.5858 3
      vertex 45 43 3
    endloop
  endfacet
  facet normal 0.382694 0.923875 0
    outer loop
      vertex 43.5858 43.5858 3
      vertex 45 43 0
      vertex 43.5858 43.5858 0
    endloop
  endfacet
  facet normal 0.923875 0.382694 0
    outer loop
      vertex 43.5858 43.5858 3
      vertex 43 45 0
      vertex 43 45 3
    endloop
  endfacet
  facet normal 0.923875 0.382694 0
    outer loop
      vertex 43 45 0
      vertex 43.5858 43.5858 3
      vertex 43.5858 43.5858 0
    endloop
  endfacet
  facet normal -0.382694 0.923875 0
    outer loop
      vertex 46.4142 43.5858 0
      vertex 45 43 3
      vertex 46.4142 43.5858 3
    endloop
  endfacet
  facet normal -0.382694 0.923875 0
    outer loop
      vertex 45 43 3
      vertex 46.4142 43.5858 0
      vertex 45 43 0
    endloop
  endfacet
  facet normal -0.923875 -0.382694 0
    outer loop
      vertex 27 25 0
      vertex 26.4142 26.4142 3
      vertex 26.4142 26.4142 0
    endloop
  endfacet
  facet normal -0.923875 -0.382694 0
    outer loop
      vertex 26.4142 26.4142 3
      vertex 27 25 0
      vertex 27 25 3
    endloop
  endfacet
  facet normal 0.382694 -0.923875 0
    outer loop
      vertex 23.5858 26.4142 0
      vertex 25 27 3
      vertex 23.5858 26.4142 3
    endloop
  endfacet
  facet normal 0.382694 -0.923875 0
    outer loop
      vertex 25 27 3
      vertex 23.5858 26.4142 0
      vertex 25 27 0
    endloop
  endfacet
  facet normal -0.382694 -0.923875 0
    outer loop
      vertex 25 27 0
      vertex 26.4142 26.4142 3
      vertex 25 27 3
    endloop
  endfacet
  facet normal -0.382694 -0.923875 -0
    outer loop
      vertex 26.4142 26.4142 3
      vertex 25 27 0
      vertex 26.4142 26.4142 0
    endloop
  endfacet
  facet normal 0.923875 -0.382694 0
    outer loop
      vertex 23 25 3
      vertex 23.5858 26.4142 0
      vertex 23.5858 26.4142 3
    endloop
  endfacet
  facet normal 0.923875 -0.382694 0
    outer loop
      vertex 23.5858 26.4142 0
      vertex 23 25 3
      vertex 23 25 0
    endloop
  endfacet
  facet normal -0.923875 0.382694 0
    outer loop
      vertex 26.4142 23.5858 0
      vertex 27 25 3
      vertex 27 25 0
    endloop
  endfacet
  facet normal -0.923875 0.382694 0
    outer loop
      vertex 27 25 3
      vertex 26.4142 23.5858 0
      vertex 26.4142 23.5858 3
    endloop
  endfacet
  facet normal 0.382694 0.923875 -0
    outer loop
      vertex 25 23 0
      vertex 23.5858 23.5858 3
      vertex 25 23 3
    endloop
  endfacet
  facet normal 0.382694 0.923875 0
    outer loop
      vertex 23.5858 23.5858 3
      vertex 25 23 0
      vertex 23.5858 23.5858 0
    endloop
  endfacet
  facet normal 0.923875 0.382694 0
    outer loop
      vertex 23.5858 23.5858 3
      vertex 23 25 0
      vertex 23 25 3
    endloop
  endfacet
  facet normal 0.923875 0.382694 0
    outer loop
      vertex 23 25 0
      vertex 23.5858 23.5858 3
      vertex 23.5858 23.5858 0
    endloop
  endfacet
  facet normal -0.382694 0.923875 0
    outer loop
      vertex 26.4142 23.5858 0
      vertex 25 23 3
      vertex 26.4142 23.5858 3
    endloop
  endfacet
  facet normal -0.382694 0.923875 0
    outer loop
      vertex 25 23 3
      vertex 26.4142 23.5858 0
      vertex 25 23 0
    endloop
  endfacet
  facet normal 0 1 -0
    outer loop
      vertex 50 3 -9
      vertex 3 3 0
      vertex 50 3 0
    endloop
  endfacet
  facet normal 0 1 0
    outer loop
      vertex 3 3 0
      vertex 50 3 -9
      vertex 3 3 -9
    endloop
  endfacet
  facet normal 0 0 -1
    outer loop
      vertex 50 0 -9
      vertex 3 3 -9
      vertex 50 3 -9
    endloop
  endfacet
  facet normal 0 0 -1
    outer loop
      vertex 0 0 -9
      vertex 3 3 -9
      vertex 50 0 -9
    endloop
  endfacet
  facet normal 0 0 -1
    outer loop
      vertex 0 50 -9
      vertex 3 3 -9
      vertex 0 0 -9
    endloop
  endfacet
  facet normal 0 0 -1
    outer loop
      vertex 3 3 -9
      vertex 0 50 -9
      vertex 3 50 -9
    endloop
  endfacet
  facet normal 1 -0 0
    outer loop
      vertex 3 3 0
      vertex 3 50 -9
      vertex 3 50 0
    endloop
  endfacet
  facet normal 1 0 0
    outer loop
      vertex 3 50 -9
      vertex 3 3 0
      vertex 3 3 -9
    endloop
  endfacet
  facet normal -1 0 0
    outer loop
      vertex 13 11.1113 12.6
      vertex 13 11.4641 15
      vertex 13 11.4641 13.3468
    endloop
  endfacet
  facet normal -1 0 0
    outer loop
      vertex 13 9.68381 11.2511
      vertex 13 11.4641 15
      vertex 13 11.1113 12.6
    endloop
  endfacet
  facet normal -1 0 0
    outer loop
      vertex 13 6.31619 11.2511
      vertex 13 9.68381 11.2511
      vertex 13 8 10.7775
    endloop
  endfacet
  facet normal -1 0 0
    outer loop
      vertex 13 9.68381 11.2511
      vertex 13 6.31619 11.2511
      vertex 13 11.4641 15
    endloop
  endfacet
  facet normal -1 0 0
    outer loop
      vertex 13 4.5359 15
      vertex 13 6.31619 11.2511
      vertex 13 4.88873 12.6
    endloop
  endfacet
  facet normal -1 0 0
    outer loop
      vertex 13 4.5359 15
      vertex 13 4.88873 12.6
      vertex 13 4.5359 13.3468
    endloop
  endfacet
  facet normal -1 0 0
    outer loop
      vertex 13 6.31619 11.2511
      vertex 13 4.5359 15
      vertex 13 11.4641 15
    endloop
  endfacet
  facet normal -1 0 0
    outer loop
      vertex 13 4.5359 3
      vertex 13 11.4641 7
      vertex 13 11.4641 3
    endloop
  endfacet
  facet normal -1 -0 0
    outer loop
      vertex 13 11.4641 7
      vertex 13 4.5359 3
      vertex 13 4.5359 7
    endloop
  endfacet
  facet normal 0.499999 0.866026 2.86829e-05
    outer loop
      vertex 16.0836 9.68381 14.3347
      vertex 13 11.4641 15
      vertex 16.8779 9.2252 15
    endloop
  endfacet
  facet normal 0.499995 0.866028 6.97255e-06
    outer loop
      vertex 13.6111 11.1113 13.2111
      vertex 13 11.4641 15
      vertex 16.0836 9.68381 14.3347
    endloop
  endfacet
  facet normal 0.49998 0.866037 0
    outer loop
      vertex 13 11.4641 15
      vertex 13.6111 11.1113 13.2111
      vertex 13 11.4641 13.3468
    endloop
  endfacet
  facet normal 0.5 0.866026 -8.95428e-06
    outer loop
      vertex 13 11.4641 3
      vertex 13.6974 11.0615 7.24488
      vertex 19 8 3
    endloop
  endfacet
  facet normal 0.500012 0.866018 1.12921e-05
    outer loop
      vertex 16.2967 9.56072 9.20043
      vertex 19 8 3
      vertex 13.6974 11.0615 7.24488
    endloop
  endfacet
  facet normal 0.499993 0.86603 -0
    outer loop
      vertex 19 8 3
      vertex 16.2967 9.56072 9.20043
      vertex 19 8 11.6863
    endloop
  endfacet
  facet normal 0.500171 0.865927 0
    outer loop
      vertex 13.0947 11.4094 6.90525
      vertex 13 11.4641 3
      vertex 13 11.4641 7
    endloop
  endfacet
  facet normal 0.499922 0.86607 8.04317e-06
    outer loop
      vertex 13.6974 11.0615 7.24488
      vertex 13 11.4641 3
      vertex 13.0947 11.4094 6.90525
    endloop
  endfacet
  facet normal 0.499999 -0.866026 2.86829e-05
    outer loop
      vertex 13 4.5359 15
      vertex 16.0836 6.31619 14.3347
      vertex 16.8779 6.7748 15
    endloop
  endfacet
  facet normal 0.500012 -0.866018 0
    outer loop
      vertex 13.6111 4.88873 13.2111
      vertex 13 4.5359 15
      vertex 13 4.5359 13.3468
    endloop
  endfacet
  facet normal 0.499993 -0.86603 -8.70642e-06
    outer loop
      vertex 13 4.5359 15
      vertex 13.6111 4.88873 13.2111
      vertex 16.0836 6.31619 14.3347
    endloop
  endfacet
  facet normal 0.500171 -0.865927 0
    outer loop
      vertex 13 4.5359 7
      vertex 13 4.5359 3
      vertex 13.0947 4.5906 6.90525
    endloop
  endfacet
  facet normal 0.499955 -0.866051 6.98316e-06
    outer loop
      vertex 13 4.5359 3
      vertex 13.6974 4.93853 7.24488
      vertex 13.0947 4.5906 6.90525
    endloop
  endfacet
  facet normal 0.5 -0.866026 -2.83379e-06
    outer loop
      vertex 19 8 3
      vertex 13.6974 4.93853 7.24488
      vertex 13 4.5359 3
    endloop
  endfacet
  facet normal 0.500006 -0.866022 8.01067e-06
    outer loop
      vertex 13.6974 4.93853 7.24488
      vertex 19 8 3
      vertex 16.2967 6.43928 9.20043
    endloop
  endfacet
  facet normal 0.499993 -0.86603 0
    outer loop
      vertex 16.2967 6.43928 9.20043
      vertex 19 8 3
      vertex 19 8 11.6863
    endloop
  endfacet
  facet normal 0 0 1
    outer loop
      vertex 16.8779 9.2252 15
      vertex 16.8779 6.7748 15
      vertex 17.2225 8 15
    endloop
  endfacet
  facet normal 0 0 1
    outer loop
      vertex 13 11.4641 15
      vertex 16.8779 6.7748 15
      vertex 16.8779 9.2252 15
    endloop
  endfacet
  facet normal 0 0 1
    outer loop
      vertex 16.8779 6.7748 15
      vertex 13 11.4641 15
      vertex 13 4.5359 15
    endloop
  endfacet
  facet normal -1 0 0
    outer loop
      vertex 28 11.1113 27.6
      vertex 28 11.4641 30
      vertex 28 11.4641 28.3468
    endloop
  endfacet
  facet normal -1 0 0
    outer loop
      vertex 28 9.68381 26.2511
      vertex 28 11.4641 30
      vertex 28 11.1113 27.6
    endloop
  endfacet
  facet normal -1 0 0
    outer loop
      vertex 28 6.31619 26.2511
      vertex 28 9.68381 26.2511
      vertex 28 8 25.7775
    endloop
  endfacet
  facet normal -1 0 0
    outer loop
      vertex 28 9.68381 26.2511
      vertex 28 6.31619 26.2511
      vertex 28 11.4641 30
    endloop
  endfacet
  facet normal -1 0 0
    outer loop
      vertex 28 4.5359 30
      vertex 28 6.31619 26.2511
      vertex 28 4.88873 27.6
    endloop
  endfacet
  facet normal -1 0 0
    outer loop
      vertex 28 4.5359 30
      vertex 28 4.88873 27.6
      vertex 28 4.5359 28.3468
    endloop
  endfacet
  facet normal -1 0 0
    outer loop
      vertex 28 6.31619 26.2511
      vertex 28 4.5359 30
      vertex 28 11.4641 30
    endloop
  endfacet
  facet normal -1 0 0
    outer loop
      vertex 28 11.4641 3
      vertex 28 11.0615 21.5475
      vertex 28 11.4641 21.8519
    endloop
  endfacet
  facet normal -1 0 0
    outer loop
      vertex 28 11.4641 3
      vertex 28 9.56072 20.9037
      vertex 28 11.0615 21.5475
    endloop
  endfacet
  facet normal -1 0 0
    outer loop
      vertex 28 11.4641 3
      vertex 28 8 20.6863
      vertex 28 9.56072 20.9037
    endloop
  endfacet
  facet normal -1 0 0
    outer loop
      vertex 28 4.5359 3
      vertex 28 8 20.6863
      vertex 28 11.4641 3
    endloop
  endfacet
  facet normal -1 -0 0
    outer loop
      vertex 28 8 20.6863
      vertex 28 4.5359 3
      vertex 28 6.43928 20.9037
    endloop
  endfacet
  facet normal -1 -0 0
    outer loop
      vertex 28 6.43928 20.9037
      vertex 28 4.5359 3
      vertex 28 4.93853 21.5475
    endloop
  endfacet
  facet normal -1 -0 0
    outer loop
      vertex 28 4.93853 21.5475
      vertex 28 4.5359 3
      vertex 28 4.5359 21.8519
    endloop
  endfacet
  facet normal 0.499999 0.866026 2.86829e-05
    outer loop
      vertex 31.0836 9.68381 29.3347
      vertex 28 11.4641 30
      vertex 31.8779 9.2252 30
    endloop
  endfacet
  facet normal 0.499995 0.866028 6.97255e-06
    outer loop
      vertex 28.6111 11.1113 28.2111
      vertex 28 11.4641 30
      vertex 31.0836 9.68381 29.3347
    endloop
  endfacet
  facet normal 0.49998 0.866037 0
    outer loop
      vertex 28 11.4641 30
      vertex 28.6111 11.1113 28.2111
      vertex 28 11.4641 28.3468
    endloop
  endfacet
  facet normal 0.499993 0.86603 -0
    outer loop
      vertex 34 8 3
      vertex 31.2967 9.56072 24.2004
      vertex 34 8 26.6863
    endloop
  endfacet
  facet normal 0.500016 0.866016 4.00192e-06
    outer loop
      vertex 34 8 3
      vertex 28.6974 11.0615 22.2449
      vertex 31.2967 9.56072 24.2004
    endloop
  endfacet
  facet normal 0.499965 0.866046 -1.47088e-05
    outer loop
      vertex 34 8 3
      vertex 28 11.4641 21.8519
      vertex 28.6974 11.0615 22.2449
    endloop
  endfacet
  facet normal 0.5 0.866026 0
    outer loop
      vertex 28 11.4641 21.8519
      vertex 34 8 3
      vertex 28 11.4641 3
    endloop
  endfacet
  facet normal 0.499999 -0.866026 2.86829e-05
    outer loop
      vertex 28 4.5359 30
      vertex 31.0836 6.31619 29.3347
      vertex 31.8779 6.7748 30
    endloop
  endfacet
  facet normal 0.500012 -0.866018 0
    outer loop
      vertex 28.6111 4.88873 28.2111
      vertex 28 4.5359 30
      vertex 28 4.5359 28.3468
    endloop
  endfacet
  facet normal 0.499993 -0.86603 -8.70642e-06
    outer loop
      vertex 28 4.5359 30
      vertex 28.6111 4.88873 28.2111
      vertex 31.0836 6.31619 29.3347
    endloop
  endfacet
  facet normal 0.5 -0.866026 0
    outer loop
      vertex 34 8 3
      vertex 28 4.5359 21.8519
      vertex 28 4.5359 3
    endloop
  endfacet
  facet normal 0.499989 -0.866032 -4.65486e-06
    outer loop
      vertex 28 4.5359 21.8519
      vertex 34 8 3
      vertex 28.6974 4.93853 22.2449
    endloop
  endfacet
  facet normal 0.500009 -0.86602 2.83899e-06
    outer loop
      vertex 28.6974 4.93853 22.2449
      vertex 34 8 3
      vertex 31.2967 6.43928 24.2004
    endloop
  endfacet
  facet normal 0.499993 -0.86603 0
    outer loop
      vertex 31.2967 6.43928 24.2004
      vertex 34 8 3
      vertex 34 8 26.6863
    endloop
  endfacet
  facet normal 0 0 1
    outer loop
      vertex 31.8779 9.2252 30
      vertex 31.8779 6.7748 30
      vertex 32.2225 8 30
    endloop
  endfacet
  facet normal 0 0 1
    outer loop
      vertex 28 11.4641 30
      vertex 31.8779 6.7748 30
      vertex 31.8779 9.2252 30
    endloop
  endfacet
  facet normal 0 0 1
    outer loop
      vertex 31.8779 6.7748 30
      vertex 28 11.4641 30
      vertex 28 4.5359 30
    endloop
  endfacet
  facet normal -1 0 0
    outer loop
      vertex 43 11.1113 42.6
      vertex 43 11.4641 45
      vertex 43 11.4641 43.3468
    endloop
  endfacet
  facet normal -1 0 0
    outer loop
      vertex 43 9.68381 41.2511
      vertex 43 11.4641 45
      vertex 43 11.1113 42.6
    endloop
  endfacet
  facet normal -1 0 0
    outer loop
      vertex 43 6.31619 41.2511
      vertex 43 9.68381 41.2511
      vertex 43 8 40.7775
    endloop
  endfacet
  facet normal -1 0 0
    outer loop
      vertex 43 9.68381 41.2511
      vertex 43 6.31619 41.2511
      vertex 43 11.4641 45
    endloop
  endfacet
  facet normal -1 0 0
    outer loop
      vertex 43 4.5359 45
      vertex 43 6.31619 41.2511
      vertex 43 4.88873 42.6
    endloop
  endfacet
  facet normal -1 0 0
    outer loop
      vertex 43 4.5359 45
      vertex 43 4.88873 42.6
      vertex 43 4.5359 43.3468
    endloop
  endfacet
  facet normal -1 0 0
    outer loop
      vertex 43 6.31619 41.2511
      vertex 43 4.5359 45
      vertex 43 11.4641 45
    endloop
  endfacet
  facet normal -1 0 0
    outer loop
      vertex 43 11.4641 3
      vertex 43 11.0615 36.5475
      vertex 43 11.4641 36.8519
    endloop
  endfacet
  facet normal -1 0 0
    outer loop
      vertex 43 11.4641 3
      vertex 43 9.56072 35.9037
      vertex 43 11.0615 36.5475
    endloop
  endfacet
  facet normal -1 0 0
    outer loop
      vertex 43 11.4641 3
      vertex 43 8 35.6863
      vertex 43 9.56072 35.9037
    endloop
  endfacet
  facet normal -1 0 0
    outer loop
      vertex 43 4.5359 3
      vertex 43 8 35.6863
      vertex 43 11.4641 3
    endloop
  endfacet
  facet normal -1 -0 0
    outer loop
      vertex 43 8 35.6863
      vertex 43 4.5359 3
      vertex 43 6.43928 35.9037
    endloop
  endfacet
  facet normal -1 -0 0
    outer loop
      vertex 43 6.43928 35.9037
      vertex 43 4.5359 3
      vertex 43 4.93853 36.5475
    endloop
  endfacet
  facet normal -1 -0 0
    outer loop
      vertex 43 4.93853 36.5475
      vertex 43 4.5359 3
      vertex 43 4.5359 36.8519
    endloop
  endfacet
  facet normal 0.5 0.866026 4.63128e-06
    outer loop
      vertex 49 8 45
      vertex 46.2427 9.59193 44.468
      vertex 43 11.4641 45
    endloop
  endfacet
  facet normal 0.5 0.866025 0
    outer loop
      vertex 46.2427 9.59193 44.468
      vertex 49 8 45
      vertex 49 8 41.7107
    endloop
  endfacet
  facet normal 0.500015 0.866017 0.000129056
    outer loop
      vertex 46.0836 9.68381 44.3347
      vertex 43 11.4641 45
      vertex 46.2427 9.59193 44.468
    endloop
  endfacet
  facet normal 0.499995 0.866028 6.97255e-06
    outer loop
      vertex 43.6111 11.1113 43.2111
      vertex 43 11.4641 45
      vertex 46.0836 9.68381 44.3347
    endloop
  endfacet
  facet normal 0.49998 0.866037 0
    outer loop
      vertex 43 11.4641 45
      vertex 43.6111 11.1113 43.2111
      vertex 43 11.4641 43.3468
    endloop
  endfacet
  facet normal 0.499993 0.86603 -0
    outer loop
      vertex 49 8 3
      vertex 46.2967 9.56072 39.2004
      vertex 49 8 41.6863
    endloop
  endfacet
  facet normal 0.500017 0.866016 2.43189e-06
    outer loop
      vertex 49 8 3
      vertex 43.6974 11.0615 37.2449
      vertex 46.2967 9.56072 39.2004
    endloop
  endfacet
  facet normal 0.499963 0.866047 -8.7831e-06
    outer loop
      vertex 49 8 3
      vertex 43 11.4641 36.8519
      vertex 43.6974 11.0615 37.2449
    endloop
  endfacet
  facet normal 0.5 0.866026 0
    outer loop
      vertex 43 11.4641 36.8519
      vertex 49 8 3
      vertex 43 11.4641 3
    endloop
  endfacet
  facet normal 0.5 -0.866026 4.63128e-06
    outer loop
      vertex 43 4.5359 45
      vertex 46.2427 6.40807 44.468
      vertex 49 8 45
    endloop
  endfacet
  facet normal 0.500015 -0.866017 0.000129056
    outer loop
      vertex 43 4.5359 45
      vertex 46.0836 6.31619 44.3347
      vertex 46.2427 6.40807 44.468
    endloop
  endfacet
  facet normal 0.500012 -0.866018 0
    outer loop
      vertex 43.6111 4.88873 43.2111
      vertex 43 4.5359 45
      vertex 43 4.5359 43.3468
    endloop
  endfacet
  facet normal 0.499993 -0.86603 -8.70642e-06
    outer loop
      vertex 43 4.5359 45
      vertex 43.6111 4.88873 43.2111
      vertex 46.0836 6.31619 44.3347
    endloop
  endfacet
  facet normal 0.5 -0.866025 0
    outer loop
      vertex 49 8 45
      vertex 46.2427 6.40807 44.468
      vertex 49 8 41.7107
    endloop
  endfacet
  facet normal 0.5 -0.866026 0
    outer loop
      vertex 49 8 3
      vertex 43 4.5359 36.8519
      vertex 43 4.5359 3
    endloop
  endfacet
  facet normal 0.499988 -0.866032 -2.77957e-06
    outer loop
      vertex 43 4.5359 36.8519
      vertex 49 8 3
      vertex 43.6974 4.93853 37.2449
    endloop
  endfacet
  facet normal 0.50001 -0.86602 1.7252e-06
    outer loop
      vertex 43.6974 4.93853 37.2449
      vertex 49 8 3
      vertex 46.2967 6.43928 39.2004
    endloop
  endfacet
  facet normal 0.499993 -0.86603 0
    outer loop
      vertex 46.2967 6.43928 39.2004
      vertex 49 8 3
      vertex 49 8 41.6863
    endloop
  endfacet
  facet normal 0 0 1
    outer loop
      vertex 43 11.4641 45
      vertex 43 4.5359 45
      vertex 49 8 45
    endloop
  endfacet
endsolid OpenSCAD_Model
